<svg width="21" height="21" viewBox="0 0 21 21" fill="none" xmlns="http://www.w3.org/2000/svg">
<path fill-rule="evenodd" clip-rule="evenodd" d="M10.0353 6.09787C10.0963 6.03676 10.1687 5.98827 10.2485 5.95519C10.3282 5.9221 10.4137 5.90508 10.5 5.90508C10.5863 5.90508 10.6718 5.9221 10.7515 5.95519C10.8312 5.98827 10.9036 6.03676 10.9646 6.09787L18.8396 13.9729C18.9628 14.0961 19.0321 14.2632 19.0321 14.4375C19.0321 14.6118 18.9628 14.7789 18.8396 14.9021C18.7164 15.0253 18.5492 15.0946 18.375 15.0946C18.2007 15.0946 18.0336 15.0253 17.9103 14.9021L10.5 7.49044L3.0896 14.9021C2.96637 15.0253 2.79924 15.0946 2.62497 15.0946C2.45071 15.0946 2.28358 15.0253 2.16035 14.9021C2.03712 14.7789 1.9679 14.6118 1.9679 14.4375C1.9679 14.2632 2.03712 14.0961 2.16035 13.9729L10.0353 6.09787Z" fill="black"/>
</svg>
