<svg width="60" height="60" viewBox="0 0 60 60" fill="none" xmlns="http://www.w3.org/2000/svg">
<g filter="url(#filter0_i_231_79)">
<rect width="60" height="60" rx="19" fill="#D95562"/>
</g>
<g filter="url(#filter1_i_231_79)">
<path d="M49.8536 48C49.8536 42.7345 47.7618 37.6846 44.0386 33.9613C40.3153 30.2381 35.2654 28.1463 29.9999 28.1463C24.7344 28.1463 19.6845 30.2381 15.9612 33.9613C12.5252 37.3973 10.4787 41.9631 10.1834 46.7855C10.1587 47.1887 10.1462 47.5937 10.1462 48H11L49.8536 48Z" fill="white"/>
<path d="M38.1219 19.122C38.1219 23.6076 34.4855 27.2439 29.9999 27.2439C25.5143 27.2439 21.8779 23.6076 21.8779 19.122C21.8779 14.6363 25.5143 11 29.9999 11C34.4855 11 38.1219 14.6363 38.1219 19.122Z" fill="white"/>
</g>
<defs>
<filter id="filter0_i_231_79" x="-3" y="0" width="63" height="60" filterUnits="userSpaceOnUse" color-interpolation-filters="sRGB">
<feFlood flood-opacity="0" result="BackgroundImageFix"/>
<feBlend mode="normal" in="SourceGraphic" in2="BackgroundImageFix" result="shape"/>
<feColorMatrix in="SourceAlpha" type="matrix" values="0 0 0 0 0 0 0 0 0 0 0 0 0 0 0 0 0 0 127 0" result="hardAlpha"/>
<feOffset dx="-3"/>
<feGaussianBlur stdDeviation="2"/>
<feComposite in2="hardAlpha" operator="arithmetic" k2="-1" k3="1"/>
<feColorMatrix type="matrix" values="0 0 0 0 0 0 0 0 0 0 0 0 0 0 0 0 0 0 0.25 0"/>
<feBlend mode="normal" in2="shape" result="effect1_innerShadow_231_79"/>
</filter>
<filter id="filter1_i_231_79" x="7.5" y="9" width="42.3535" height="40" filterUnits="userSpaceOnUse" color-interpolation-filters="sRGB">
<feFlood flood-opacity="0" result="BackgroundImageFix"/>
<feBlend mode="normal" in="SourceGraphic" in2="BackgroundImageFix" result="shape"/>
<feColorMatrix in="SourceAlpha" type="matrix" values="0 0 0 0 0 0 0 0 0 0 0 0 0 0 0 0 0 0 127 0" result="hardAlpha"/>
<feOffset dx="-2" dy="-2"/>
<feGaussianBlur stdDeviation="2"/>
<feComposite in2="hardAlpha" operator="arithmetic" k2="-1" k3="1"/>
<feColorMatrix type="matrix" values="0 0 0 0 0 0 0 0 0 0 0 0 0 0 0 0 0 0 0.25 0"/>
<feBlend mode="normal" in2="shape" result="effect1_innerShadow_231_79"/>
</filter>
</defs>
</svg>
