<svg width="13" height="18" viewBox="0 0 13 18" fill="none" xmlns="http://www.w3.org/2000/svg">
<g clip-path="url(#clip0_76_16)">
<path d="M13 4.875V15.1667C13 15.7413 12.7717 16.2924 12.3654 16.6987C11.9591 17.1051 11.408 17.3333 10.8333 17.3333H2.16667C1.59203 17.3333 1.04093 17.1051 0.634602 16.6987C0.228273 16.2924 0 15.7413 0 15.1667V2.16667C0 1.59203 0.228273 1.04093 0.634602 0.634602C1.04093 0.228273 1.59203 0 2.16667 0H8.125L13 4.875ZM9.75 4.875C9.31902 4.875 8.9057 4.7038 8.60095 4.39905C8.2962 4.0943 8.125 3.68098 8.125 3.25V1.08333H2.16667C1.87935 1.08333 1.6038 1.19747 1.40063 1.40063C1.19747 1.6038 1.08333 1.87935 1.08333 2.16667V15.1667C1.08333 15.454 1.19747 15.7295 1.40063 15.9327C1.6038 16.1359 1.87935 16.25 2.16667 16.25H10.8333C11.1207 16.25 11.3962 16.1359 11.5994 15.9327C11.8025 15.7295 11.9167 15.454 11.9167 15.1667V4.875H9.75Z" fill="#EEEEEE"/>
</g>
<defs>
<clipPath id="clip0_76_16">
<rect width="13" height="18" fill="white"/>
</clipPath>
</defs>
</svg>
