<svg width="18" height="11" viewBox="0 0 18 11" fill="none" xmlns="http://www.w3.org/2000/svg">
<path fill-rule="evenodd" clip-rule="evenodd" d="M0.75 9.75C0.75 9.6091 0.829018 9.47398 0.96967 9.37435C1.11032 9.27472 1.30109 9.21875 1.5 9.21875H16.5C16.6989 9.21875 16.8897 9.27472 17.0303 9.37435C17.171 9.47398 17.25 9.6091 17.25 9.75C17.25 9.8909 17.171 10.026 17.0303 10.1257C16.8897 10.2253 16.6989 10.2812 16.5 10.2812H1.5C1.30109 10.2812 1.11032 10.2253 0.96967 10.1257C0.829018 10.026 0.75 9.8909 0.75 9.75ZM0.75 5.5C0.75 5.3591 0.829018 5.22398 0.96967 5.12435C1.11032 5.02472 1.30109 4.96875 1.5 4.96875H16.5C16.6989 4.96875 16.8897 5.02472 17.0303 5.12435C17.171 5.22398 17.25 5.3591 17.25 5.5C17.25 5.6409 17.171 5.77602 17.0303 5.87565C16.8897 5.97528 16.6989 6.03125 16.5 6.03125H1.5C1.30109 6.03125 1.11032 5.97528 0.96967 5.87565C0.829018 5.77602 0.75 5.6409 0.75 5.5ZM0.75 1.25C0.75 1.1091 0.829018 0.973978 0.96967 0.87435C1.11032 0.774721 1.30109 0.71875 1.5 0.71875H16.5C16.6989 0.71875 16.8897 0.774721 17.0303 0.87435C17.171 0.973978 17.25 1.1091 17.25 1.25C17.25 1.3909 17.171 1.52602 17.0303 1.62565C16.8897 1.72528 16.6989 1.78125 16.5 1.78125H1.5C1.30109 1.78125 1.11032 1.72528 0.96967 1.62565C0.829018 1.52602 0.75 1.3909 0.75 1.25Z" fill="#00FF19"/>
</svg>
