<svg width="16" height="12" viewBox="0 0 16 12" fill="none" xmlns="http://www.w3.org/2000/svg">
<g clip-path="url(#clip0_76_13)">
<path d="M6.00201 3.5C6.00201 3.89782 5.84398 4.27936 5.56267 4.56066C5.28137 4.84196 4.89984 5 4.50201 5C4.10419 5 3.72266 4.84196 3.44135 4.56066C3.16005 4.27936 3.00201 3.89782 3.00201 3.5C3.00201 3.10218 3.16005 2.72064 3.44135 2.43934C3.72266 2.15804 4.10419 2 4.50201 2C4.89984 2 5.28137 2.15804 5.56267 2.43934C5.84398 2.72064 6.00201 3.10218 6.00201 3.5Z" fill="white"/>
<path d="M1.5 0C1.10218 0 0.720644 0.158035 0.43934 0.43934C0.158035 0.720644 0 1.10218 0 1.5V10.5C0 10.8978 0.158035 11.2794 0.43934 11.5607C0.720644 11.842 1.10218 12 1.5 12H14.5C14.8978 12 15.2794 11.842 15.5607 11.5607C15.842 11.2794 16 10.8978 16 10.5V1.5C16 1.10218 15.842 0.720644 15.5607 0.43934C15.2794 0.158035 14.8978 0 14.5 0H1.5ZM14.5 1C14.6326 1 14.7598 1.05268 14.8536 1.14645C14.9473 1.24021 15 1.36739 15 1.5V7.5L11.225 5.553C11.1312 5.50602 11.025 5.48973 10.9215 5.50642C10.8179 5.52311 10.7223 5.57194 10.648 5.646L6.938 9.356L4.278 7.584C4.18196 7.52006 4.06676 7.4913 3.95194 7.5026C3.83712 7.5139 3.72973 7.56456 3.648 7.646L1.002 10V10.54C1.0008 10.5267 1.00014 10.5134 1 10.5V1.5C1 1.36739 1.05268 1.24021 1.14645 1.14645C1.24021 1.05268 1.36739 1 1.5 1H14.5Z" fill="white"/>
</g>
<defs>
<clipPath id="clip0_76_13">
<rect width="16" height="12" fill="white"/>
</clipPath>
</defs>
</svg>
