<svg width="16" height="16" viewBox="0 0 16 16" fill="none" xmlns="http://www.w3.org/2000/svg">
<path d="M7.99999 4.75378C7.57369 4.75378 7.15157 4.83775 6.75772 5.00089C6.36387 5.16402 6.00601 5.40314 5.70458 5.70458C5.40314 6.00601 5.16402 6.36387 5.00089 6.75772C4.83775 7.15157 4.75378 7.57369 4.75378 7.99999C4.75378 8.42629 4.83775 8.84841 5.00089 9.24226C5.16402 9.6361 5.40314 9.99396 5.70458 10.2954C6.00601 10.5968 6.36387 10.836 6.75772 10.9991C7.15157 11.1622 7.57369 11.2462 7.99999 11.2462C8.86093 11.2462 9.68662 10.9042 10.2954 10.2954C10.9042 9.68662 11.2462 8.86093 11.2462 7.99999C11.2462 7.13904 10.9042 6.31336 10.2954 5.70458C9.68662 5.09579 8.86093 4.75378 7.99999 4.75378ZM5.75385 7.99999C5.75385 7.40427 5.99049 6.83296 6.41173 6.41173C6.83296 5.99049 7.40427 5.75385 7.99999 5.75385C8.5957 5.75385 9.16702 5.99049 9.58825 6.41173C10.0095 6.83296 10.2461 7.40427 10.2461 7.99999C10.2461 8.5957 10.0095 9.16702 9.58825 9.58825C9.16702 10.0095 8.5957 10.2461 7.99999 10.2461C7.40427 10.2461 6.83296 10.0095 6.41173 9.58825C5.99049 9.16702 5.75385 8.5957 5.75385 7.99999Z" fill="#00FF19"/>
<path d="M9.79611 1.34258C9.26908 -0.447528 6.73092 -0.447528 6.20389 1.34258L6.10988 1.6616C6.07308 1.78656 6.00877 1.9017 5.92169 1.99858C5.8346 2.09546 5.72694 2.17163 5.60659 2.22149C5.48625 2.27136 5.35627 2.29366 5.22618 2.28676C5.0961 2.27986 4.9692 2.24395 4.8548 2.18164L4.56279 2.02163C2.92268 1.12957 1.12957 2.92368 2.02263 4.56279L2.18164 4.8548C2.24395 4.9692 2.27986 5.0961 2.28676 5.22618C2.29366 5.35627 2.27136 5.48625 2.22149 5.60659C2.17163 5.72694 2.09546 5.8346 1.99858 5.92169C1.9017 6.00877 1.78656 6.07308 1.6616 6.10988L1.34258 6.20389C-0.447528 6.73092 -0.447528 9.26908 1.34258 9.79611L1.6616 9.89012C1.78656 9.92693 1.9017 9.99123 1.99858 10.0783C2.09546 10.1654 2.17163 10.2731 2.22149 10.3934C2.27136 10.5138 2.29366 10.6437 2.28676 10.7738C2.27986 10.9039 2.24395 11.0308 2.18164 11.1452L2.02163 11.4372C1.12957 13.0773 2.92268 14.8714 4.56279 13.9774L4.8548 13.8184C4.9692 13.7561 5.0961 13.7201 5.22618 13.7132C5.35627 13.7063 5.48625 13.7286 5.60659 13.7785C5.72694 13.8284 5.8346 13.9045 5.92169 14.0014C6.00877 14.0983 6.07308 14.2134 6.10988 14.3384L6.20389 14.6574C6.73092 16.4475 9.26908 16.4475 9.79611 14.6574L9.89012 14.3384C9.92693 14.2134 9.99123 14.0983 10.0783 14.0014C10.1654 13.9045 10.2731 13.8284 10.3934 13.7785C10.5138 13.7286 10.6437 13.7063 10.7738 13.7132C10.9039 13.7201 11.0308 13.7561 11.1452 13.8184L11.4372 13.9784C13.0773 14.8714 14.8714 13.0763 13.9774 11.4372L13.8184 11.1452C13.7561 11.0308 13.7201 10.9039 13.7132 10.7738C13.7063 10.6437 13.7286 10.5138 13.7785 10.3934C13.8284 10.2731 13.9045 10.1654 14.0014 10.0783C14.0983 9.99123 14.2134 9.92693 14.3384 9.89012L14.6574 9.79611C16.4475 9.26908 16.4475 6.73092 14.6574 6.20389L14.3384 6.10988C14.2134 6.07308 14.0983 6.00877 14.0014 5.92169C13.9045 5.8346 13.8284 5.72694 13.7785 5.60659C13.7286 5.48625 13.7063 5.35627 13.7132 5.22618C13.7201 5.0961 13.7561 4.9692 13.8184 4.8548L13.9784 4.56279C14.8714 2.92268 13.0763 1.12957 11.4372 2.02263L11.1452 2.18164C11.0308 2.24395 10.9039 2.27986 10.7738 2.28676C10.6437 2.29366 10.5138 2.27136 10.3934 2.22149C10.2731 2.17163 10.1654 2.09546 10.0783 1.99858C9.99123 1.9017 9.92693 1.78656 9.89012 1.6616L9.79611 1.34258ZM7.16295 1.6256C7.40896 0.790549 8.59104 0.790549 8.83705 1.6256L8.93106 1.94462C9.01008 2.21272 9.14811 2.45974 9.33501 2.66757C9.52191 2.87539 9.75296 3.03875 10.0112 3.14568C10.2694 3.2526 10.5484 3.30037 10.8275 3.2855C11.1066 3.27062 11.3788 3.19346 11.6242 3.05969L11.9152 2.89968C12.6793 2.48466 13.5153 3.31971 13.0993 4.08476L12.9403 4.37677C12.8067 4.62222 12.7298 4.89443 12.7151 5.17348C12.7003 5.45252 12.7482 5.73133 12.8553 5.98946C12.9623 6.24759 13.1257 6.47851 13.3335 6.66529C13.5413 6.85208 13.7883 6.99 14.0564 7.06894L14.3744 7.16295C15.2095 7.40896 15.2095 8.59104 14.3744 8.83705L14.0554 8.93106C13.7873 9.01008 13.5403 9.14811 13.3324 9.33501C13.1246 9.52191 12.9612 9.75296 12.8543 10.0112C12.7474 10.2694 12.6996 10.5484 12.7145 10.8275C12.7294 11.1066 12.8065 11.3788 12.9403 11.6242L13.1003 11.9152C13.5153 12.6793 12.6803 13.5153 11.9152 13.0993L11.6242 12.9403C11.3787 12.8066 11.1064 12.7294 10.8273 12.7146C10.5481 12.6998 10.2692 12.7477 10.0109 12.8547C9.75265 12.9617 9.52162 13.1252 9.33477 13.3331C9.14791 13.5411 9.00997 13.7882 8.93106 14.0564L8.83705 14.3744C8.59104 15.2095 7.40896 15.2095 7.16295 14.3744L7.06894 14.0554C6.98988 13.7874 6.85188 13.5405 6.66505 13.3328C6.47821 13.1251 6.24728 12.9618 5.98916 12.8549C5.73105 12.748 5.45228 12.7002 5.17329 12.7149C4.8943 12.7297 4.62215 12.8067 4.37677 12.9403L4.08476 13.1003C3.32071 13.5153 2.48466 12.6803 2.90068 11.9152L3.05969 11.6242C3.19365 11.3788 3.27096 11.1064 3.28593 10.8272C3.30091 10.548 3.25318 10.2689 3.14624 10.0106C3.0393 9.75219 2.87587 9.52104 2.66795 9.33407C2.46002 9.14709 2.21286 9.00905 1.94462 8.93006L1.6256 8.83605C0.790549 8.59004 0.790549 7.40796 1.6256 7.16195L1.94462 7.06794C2.21244 6.98885 2.45919 6.85087 2.66681 6.66411C2.87442 6.47734 3.03765 6.24652 3.14455 5.98853C3.25145 5.73054 3.2993 5.45191 3.28462 5.17304C3.26994 4.89417 3.19309 4.62211 3.05969 4.37677L2.89968 4.08476C2.48466 3.32071 3.31971 2.48466 4.08476 2.90068L4.37677 3.05969C4.62215 3.19328 4.8943 3.27028 5.17329 3.28506C5.45228 3.29984 5.73105 3.25202 5.98916 3.14511C6.24728 3.0382 6.47821 2.87491 6.66505 2.66719C6.85188 2.45947 6.98988 2.21258 7.06894 1.94462L7.16295 1.6256Z" fill="#00FF19"/>
</svg>
