<svg width="20" height="20" viewBox="0 0 20 20" fill="none" xmlns="http://www.w3.org/2000/svg">
<path d="M14.42 17.5125C15.4082 16.5271 16.1919 15.3561 16.726 14.0669C17.2601 12.7776 17.5342 11.3955 17.5325 10C17.5342 8.60448 17.2601 7.22239 16.726 5.93314C16.1919 4.64389 15.4082 3.47291 14.42 2.4875L13.535 3.37125C14.4069 4.24074 15.0984 5.27397 15.5697 6.41156C16.041 7.54914 16.2828 8.76865 16.2813 10C16.2813 12.5888 15.2313 14.9325 13.535 16.6288L14.42 17.5125Z" fill="black"/>
<path d="M12.6512 15.745C13.4068 14.9914 14.006 14.0959 14.4145 13.11C14.8229 12.1241 15.0325 11.0672 15.0312 10C15.0325 8.93283 14.8229 7.87592 14.4145 6.89001C14.006 5.90409 13.4068 5.0086 12.6512 4.255L11.7675 5.13875C12.4068 5.77643 12.9138 6.53417 13.2594 7.36842C13.605 8.20268 13.7823 9.097 13.7812 10C13.7827 10.9031 13.6056 11.7976 13.2602 12.6321C12.9149 13.4666 12.408 14.2246 11.7687 14.8625L12.6512 15.745Z" fill="black"/>
<path d="M12.5312 10C12.5322 10.7388 12.3872 11.4706 12.1044 12.1532C11.8217 12.8358 11.4069 13.4557 10.8837 13.9775L10 13.0938C10.4069 12.6879 10.7295 12.2057 10.9494 11.6747C11.1693 11.1438 11.282 10.5747 11.2812 10C11.2812 8.7925 10.7913 7.69875 10 6.90625L10.8837 6.0225C11.4069 6.54426 11.8217 7.16425 12.1044 7.84685C12.3872 8.52944 12.5322 9.26117 12.5312 10ZM8.75 5C8.74983 4.8824 8.71649 4.76722 8.65379 4.66772C8.5911 4.56822 8.50161 4.48842 8.39559 4.43751C8.28958 4.38659 8.17135 4.36662 8.0545 4.37988C7.93764 4.39315 7.8269 4.43912 7.735 4.5125L4.78125 6.875H1.875C1.70924 6.875 1.55027 6.94085 1.43306 7.05806C1.31585 7.17527 1.25 7.33424 1.25 7.5V12.5C1.25 12.6658 1.31585 12.8247 1.43306 12.9419C1.55027 13.0592 1.70924 13.125 1.875 13.125H4.78125L7.735 15.4875C7.8269 15.5609 7.93764 15.6069 8.0545 15.6201C8.17135 15.6334 8.28958 15.6134 8.39559 15.5625C8.50161 15.5116 8.5911 15.4318 8.65379 15.3323C8.71649 15.2328 8.74983 15.1176 8.75 15V5ZM5.39 7.9875L7.5 6.3V13.7L5.39 12.0125C5.27937 11.9237 5.14184 11.8753 5 11.875H2.5V8.125H5C5.14184 8.12475 5.27937 8.07626 5.39 7.9875Z" fill="black"/>
</svg>
