<svg width="20" height="20" viewBox="0 0 20 20" fill="none" xmlns="http://www.w3.org/2000/svg">
<path d="M19.23 7.64375C19.2928 7.58271 19.3417 7.50877 19.3732 7.42702C19.4048 7.34527 19.4182 7.25766 19.4126 7.17021C19.407 7.08277 19.3826 6.99758 19.3409 6.92051C19.2992 6.84343 19.2413 6.77631 19.1712 6.72375C16.5062 4.78619 13.2949 3.7449 9.99997 3.75C6.57372 3.75 3.40372 4.8525 0.828723 6.72375C0.758529 6.77621 0.700541 6.84326 0.658755 6.92029C0.616968 6.99731 0.592376 7.08248 0.586673 7.16992C0.580971 7.25737 0.594292 7.34501 0.62572 7.42681C0.657149 7.50861 0.705937 7.58262 0.768723 7.64375C0.877967 7.75135 1.02185 7.81669 1.17476 7.82814C1.32767 7.83958 1.47968 7.79639 1.60372 7.70625C4.04765 5.94249 6.98607 4.99539 9.99997 5C13.1337 5 16.0337 6.0025 18.395 7.705C18.6512 7.89 19.0075 7.8675 19.23 7.64375Z" fill="black"/>
<path d="M16.5362 10.3388C16.6007 10.2766 16.6504 10.2009 16.6819 10.1171C16.7134 10.0333 16.7258 9.94359 16.7183 9.8544C16.7107 9.76522 16.6834 9.67884 16.6383 9.60154C16.5932 9.52423 16.5314 9.45795 16.4575 9.4075C14.5355 8.15899 12.2919 7.49626 10 7.5C7.61875 7.5 5.4 8.2 3.5425 9.4075C3.46819 9.45765 3.40606 9.52382 3.36068 9.60113C3.3153 9.67845 3.28783 9.76495 3.28027 9.85428C3.27272 9.94361 3.28528 10.0335 3.31703 10.1173C3.34878 10.2012 3.39891 10.2768 3.46375 10.3388C3.57025 10.4427 3.70892 10.5074 3.85701 10.5221C4.00511 10.5369 4.15382 10.5009 4.27875 10.42C5.98628 9.32632 7.97224 8.74663 10 8.75C12.0273 8.74687 14.0128 9.32655 15.72 10.42C15.9775 10.585 16.32 10.555 16.5362 10.3388ZM13.8075 13.0675C14.09 12.785 14.0387 12.3113 13.6825 12.13C12.5419 11.5496 11.2798 11.248 10 11.25C8.675 11.25 7.4225 11.5675 6.3175 12.13C5.96125 12.3113 5.91 12.785 6.1925 13.0675L6.21125 13.0862C6.41125 13.2862 6.72 13.3237 6.975 13.1987C7.91653 12.7373 8.95146 12.4982 10 12.5C11.085 12.5 12.1125 12.7513 13.025 13.2C13.2787 13.325 13.5875 13.2875 13.7875 13.0862L13.8075 13.0675ZM11.325 15.55C11.57 15.305 11.5725 14.9 11.275 14.725C10.8894 14.4955 10.4488 14.3745 10 14.375C9.5512 14.3745 9.11064 14.4955 8.725 14.725C8.4275 14.9 8.43 15.305 8.675 15.55L9.5575 16.4325C9.6747 16.5497 9.83364 16.6155 9.99937 16.6155C10.1651 16.6155 10.324 16.5497 10.4412 16.4325L11.325 15.55Z" fill="black"/>
</svg>
