<svg width="20" height="20" viewBox="0 0 20 20" fill="none" xmlns="http://www.w3.org/2000/svg">
<g clip-path="url(#clip0_76_41)">
<mask id="mask0_76_41" style="mask-type:luminance" maskUnits="userSpaceOnUse" x="0" y="0" width="20" height="20">
<path d="M0 0H20V20H0V0Z" fill="white"/>
</mask>
<g mask="url(#mask0_76_41)">
<path d="M5.3225 12.93C4.11213 11.2784 3.57002 9.23062 3.80462 7.19644C4.03922 5.16226 5.03323 3.29168 6.5878 1.95892C8.14235 0.626155 10.1428 -0.070492 12.189 0.00834944C14.2351 0.0871909 16.176 0.935706 17.6234 2.38414C19.0708 3.83257 19.9179 5.7741 19.9953 7.8203C20.0727 9.86649 19.3746 11.8665 18.0407 13.4201C16.7069 14.9737 14.8356 15.9663 12.8012 16.1995C10.7669 16.4326 8.71952 15.8891 7.06875 14.6775H7.07C7.0325 14.7275 6.9925 14.775 6.9475 14.8213L2.135 19.6338C1.90062 19.8683 1.58265 20.0001 1.25107 20.0003C0.919475 20.0004 0.601421 19.8688 0.366871 19.6344C0.13232 19.4 0.000484543 19.082 0.000366288 18.7504C0.000249939 18.4189 0.131861 18.1008 0.366245 17.8663L5.17875 13.0538C5.22344 13.0085 5.27149 12.968 5.3225 12.93ZM5 8.125C5 9.02784 5.17783 9.92184 5.52333 10.756C5.86883 11.5901 6.37524 12.348 7.01364 12.9864C7.65204 13.6248 8.40994 14.1312 9.24405 14.4767C10.0782 14.8222 10.9722 15 11.875 15C12.7778 15 13.6718 14.8222 14.5059 14.4767C15.3401 14.1312 16.098 13.6248 16.7364 12.9864C17.3748 12.348 17.8812 11.5901 18.2267 10.756C18.5722 9.92184 18.75 9.02784 18.75 8.125C18.75 6.30164 18.0257 4.55296 16.7364 3.26364C15.447 1.97433 13.6984 1.25 11.875 1.25C10.0516 1.25 8.30295 1.97433 7.01364 3.26364C5.72433 4.55296 5 6.30164 5 8.125Z" fill="#EEEEEE"/>
</g>
</g>
<defs>
<clipPath id="clip0_76_41">
<rect width="20" height="20" fill="white"/>
</clipPath>
</defs>
</svg>
