<svg width="14" height="17" viewBox="0 0 14 17" fill="none" xmlns="http://www.w3.org/2000/svg">
<g clip-path="url(#clip0_76_5)">
<path d="M6.37164 0.151001V8.25991H7.53006V0.151001H6.37164Z" fill="#EEEEEE"/>
<path d="M1.15883 9.20064C1.15855 8.16614 1.4354 7.15045 1.96059 6.25917C2.48578 5.3679 3.24014 4.63358 4.14523 4.13257L3.5834 3.12012C2.24025 3.8639 1.18116 5.03148 0.571488 6.44058C-0.038186 7.84968 -0.164139 9.42099 0.213293 10.9092C0.590725 12.3974 1.4503 13.7188 2.65782 14.6671C3.86535 15.6153 5.35286 16.137 6.88814 16.1508C8.42342 16.1646 9.92005 15.6696 11.1444 14.7432C12.3687 13.8168 13.2519 12.511 13.656 11.0298C14.06 9.54862 13.9623 7.9753 13.378 6.55548C12.7937 5.13567 11.7558 3.94927 10.4262 3.18151L9.84579 4.18354C10.7265 4.69172 11.4578 5.42277 11.9664 6.30321C12.475 7.18365 12.7428 8.18245 12.743 9.19921C12.7432 10.216 12.4757 11.2149 11.9675 12.0955C11.4592 12.9761 10.7282 13.7075 9.84768 14.216C8.96721 14.7245 7.96839 14.9923 6.95163 14.9924C5.93486 14.9925 4.93598 14.725 4.05539 14.2167C3.17479 13.7084 2.44351 12.9772 1.93506 12.0967C1.42661 11.2162 1.15889 10.2174 1.15883 9.20064Z" fill="#EEEEEE"/>
</g>
<defs>
<clipPath id="clip0_76_5">
<rect width="14" height="17" fill="white"/>
</clipPath>
</defs>
</svg>
